# This file uses centimeters as units for non-parametric coordinates.

mtllib ButtonHolder.mtl
g default
v -0.365945 1.286173 -0.096850
v 0.401281 1.286173 -0.096850
v -0.365945 1.286173 0.282705
v 0.401281 1.286173 0.282705
v -0.365945 2.286173 0.282705
v 0.401281 2.286173 0.282705
v -0.365945 2.286173 -0.096850
v 0.401281 2.286173 -0.096850
vt 0.907336 0.215021
vt 0.907336 0.764004
vt 0.664332 0.764004
vt 0.664332 0.215021
vt 0.904828 0.762951
vt 0.904790 0.217152
vt 0.667685 0.217166
vt 0.667723 0.762965
vt 0.111225 0.205074
vt 0.582481 0.205074
vt 0.907336 0.764004
vt 0.907336 0.215021
vt 0.664332 0.215021
vt 0.664332 0.764004
vt 0.582481 0.768348
vt 0.111225 0.768348
vt 0.111225 0.768348
vt 0.582481 0.768348
vt 0.582481 0.205074
vt 0.111225 0.205074
vt 0.667723 0.762965
vt 0.667685 0.217166
vt 0.904790 0.217152
vt 0.904828 0.762951
vn 0.000000 -1.000000 0.000000
vn 0.000000 -1.000000 0.000000
vn 0.000000 -1.000000 0.000000
vn 0.000000 -1.000000 0.000000
vn 0.000000 0.000000 1.000000
vn 0.000000 0.000000 1.000000
vn 0.000000 0.000000 1.000000
vn 0.000000 0.000000 1.000000
vn 0.000000 1.000000 -0.000000
vn 0.000000 1.000000 -0.000000
vn 0.000000 1.000000 -0.000000
vn 0.000000 1.000000 -0.000000
vn 0.000000 -0.000000 -1.000000
vn 0.000000 -0.000000 -1.000000
vn 0.000000 -0.000000 -1.000000
vn 0.000000 -0.000000 -1.000000
vn 1.000000 0.000000 0.000000
vn 1.000000 0.000000 0.000000
vn 1.000000 0.000000 0.000000
vn 1.000000 0.000000 0.000000
vn -1.000000 0.000000 0.000000
vn -1.000000 0.000000 0.000000
vn -1.000000 0.000000 0.000000
vn -1.000000 0.000000 0.000000
s off
g pCube1
usemtl lambert2SG
f 1/5/1 2/6/2 4/7/3 3/8/4
f 3/9/5 4/10/6 6/15/7 5/16/8
f 5/21/9 6/22/10 8/23/11 7/24/12
f 7/17/13 8/18/14 2/19/15 1/20/16
f 2/1/17 8/2/18 6/3/19 4/4/20
f 7/11/21 1/12/22 3/13/23 5/14/24
