# This file uses centimeters as units for non-parametric coordinates.

mtllib Control Panel.mtl
g default
v 0.190211 0.000000 -0.061803
v 0.161804 0.000000 -0.117557
v 0.117557 0.000000 -0.161803
v 0.061803 0.000000 -0.190211
v 0.000000 0.000000 -0.200000
v -0.061803 0.000000 -0.190211
v -0.117557 0.000000 -0.161803
v -0.161803 0.000000 -0.117557
v -0.190211 0.000000 -0.061803
v -0.200000 0.000000 0.000000
v -0.190211 0.000000 0.061803
v -0.161803 0.000000 0.117557
v -0.117557 0.000000 0.161803
v -0.061803 0.000000 0.190211
v -0.000000 0.000000 0.200000
v 0.061803 0.000000 0.190211
v 0.117557 0.000000 0.161803
v 0.161803 0.000000 0.117557
v 0.190211 0.000000 0.061803
v 0.200000 0.000000 0.000000
v 0.190211 1.355738 -0.043134
v 0.161804 1.315809 -0.082046
v 0.117557 1.284121 -0.112926
v 0.061803 1.263776 -0.132753
v -0.000000 1.256765 -0.139585
v -0.061803 1.263776 -0.132753
v -0.117557 1.284121 -0.112926
v -0.161803 1.315809 -0.082046
v -0.190211 1.355738 -0.043134
v -0.200000 1.400000 0.000000
v -0.190211 1.444262 0.043134
v -0.161803 1.484191 0.082046
v -0.117557 1.515879 0.112926
v -0.061803 1.536224 0.132753
v -0.000000 1.543235 0.139585
v 0.061803 1.536224 0.132753
v 0.117557 1.515879 0.112926
v 0.161803 1.484191 0.082046
v 0.190211 1.444262 0.043134
v 0.200000 1.400000 0.000000
v 0.000000 0.000000 0.000000
v -0.752582 1.119158 -0.318910
v 0.747178 1.096917 -0.303932
v -0.748042 1.870071 0.341475
v 0.751718 1.847831 0.356454
v -0.747178 1.903083 0.303932
v 0.752582 1.880842 0.318910
v -0.751718 1.152169 -0.356454
v 0.748042 1.129929 -0.341475
vt 0.926929 0.149302
vt 0.904735 0.105744
vt 0.870168 0.071177
vt 0.826610 0.048983
vt 0.778326 0.041336
vt 0.730042 0.048983
vt 0.686485 0.071177
vt 0.651917 0.105744
vt 0.629724 0.149302
vt 0.622076 0.197586
vt 0.629724 0.245870
vt 0.651917 0.289427
vt 0.686485 0.323995
vt 0.730042 0.346188
vt 0.778326 0.353836
vt 0.826610 0.346188
vt 0.870168 0.323995
vt 0.904735 0.289427
vt 0.926929 0.245870
vt 0.934576 0.197586
vt 0.703353 0.552801
vt 0.718015 0.552801
vt 0.732677 0.552801
vt 0.747340 0.552801
vt 0.762002 0.552801
vt 0.776664 0.552801
vt 0.791326 0.552801
vt 0.805988 0.552801
vt 0.820650 0.552801
vt 0.835312 0.552801
vt 0.849975 0.552801
vt 0.864637 0.552801
vt 0.879299 0.552801
vt 0.893961 0.552801
vt 0.908623 0.552801
vt 0.923285 0.552801
vt 0.937947 0.552801
vt 0.952610 0.552801
vt 0.967272 0.552801
vt 0.981934 0.552801
vt 0.996596 0.552801
vt 0.703353 0.993768
vt 0.718015 0.993768
vt 0.732677 0.993768
vt 0.747340 0.993768
vt 0.762002 0.993768
vt 0.776664 0.993768
vt 0.791326 0.993768
vt 0.805988 0.993768
vt 0.820650 0.993768
vt 0.835312 0.993768
vt 0.849975 0.993768
vt 0.864637 0.993768
vt 0.879299 0.993768
vt 0.893961 0.993768
vt 0.908623 0.993768
vt 0.923285 0.993768
vt 0.937947 0.993768
vt 0.952610 0.993768
vt 0.967272 0.993768
vt 0.981934 0.993768
vt 0.996596 0.993768
vt 0.778326 0.191336
vt 0.221740 0.274298
vt 0.392461 0.274298
vt 0.392461 0.445019
vt 0.221740 0.445019
vt 0.392461 0.615740
vt 0.221740 0.615740
vt 0.392461 0.786460
vt 0.221740 0.786460
vt 0.392461 0.957181
vt 0.221740 0.957181
vt 0.563182 0.274298
vt 0.563182 0.445019
vt 0.051019 0.274298
vt 0.051019 0.445019
vn 0.933725 0.006007 -0.357941
vn 0.756108 0.018120 -0.654196
vn 0.797503 0.015204 -0.603124
vn 0.960911 0.003773 -0.276832
vn 0.518374 0.032172 -0.854549
vn 0.553831 0.030222 -0.832080
vn 0.260725 0.042811 -0.964463
vn 0.279918 0.042218 -0.959095
vn 0.000000 0.046714 -0.998908
vn 0.000000 0.046714 -0.998908
vn -0.260725 0.042811 -0.964463
vn -0.279918 0.042218 -0.959095
vn -0.518375 0.032172 -0.854548
vn -0.553832 0.030222 -0.832080
vn -0.756108 0.018120 -0.654196
vn -0.797503 0.015204 -0.603123
vn -0.933725 0.006007 -0.357942
vn -0.960910 0.003773 -0.276834
vn -0.999995 0.001244 0.002949
vn -0.995481 0.001227 0.094952
vn -0.933109 0.005588 0.359550
vn -0.900474 0.007495 0.434845
vn -0.760156 0.015898 0.649547
vn -0.718433 0.018138 0.695360
vn -0.527089 0.027128 0.849377
vn -0.492771 0.028526 0.869691
vn -0.267882 0.035304 0.962805
vn -0.249281 0.035713 0.967773
vn -0.000000 0.038249 0.999268
vn -0.000000 0.038249 0.999268
vn 0.267882 0.035303 0.962805
vn 0.249281 0.035713 0.967773
vn 0.527089 0.027128 0.849377
vn 0.492771 0.028526 0.869691
vn 0.760156 0.015898 0.649547
vn 0.718433 0.018138 0.695360
vn 0.933109 0.005588 0.359550
vn 0.900474 0.007495 0.434845
vn 0.999995 0.001244 0.002950
vn 0.995481 0.001227 0.094953
vn 0.000000 -1.000000 0.000000
vn 0.000000 -1.000000 0.000000
vn 0.000000 -1.000000 0.000000
vn 0.000000 -1.000000 0.000000
vn 0.000000 -1.000000 0.000000
vn 0.000000 -1.000000 0.000000
vn 0.000000 -1.000000 0.000000
vn 0.000000 -1.000000 0.000000
vn 0.000000 -1.000000 0.000000
vn 0.000000 -1.000000 0.000000
vn 0.000000 -1.000000 0.000000
vn 0.000000 -1.000000 0.000000
vn 0.000000 -1.000000 0.000000
vn 0.000000 -1.000000 0.000000
vn 0.000000 -1.000000 0.000000
vn 0.000000 -1.000000 0.000000
vn 0.000000 -1.000000 0.000000
vn 0.000000 -1.000000 0.000000
vn 0.000000 -1.000000 0.000000
vn 0.000000 -1.000000 0.000000
vn 0.000000 -1.000000 0.000000
vn -0.017290 -0.660234 0.750861
vn -0.017290 -0.660234 0.750861
vn -0.017290 -0.660234 0.750861
vn -0.017290 -0.660234 0.750861
vn 0.004540 0.750913 0.660386
vn 0.004540 0.750913 0.660386
vn 0.004540 0.750913 0.660386
vn 0.004540 0.750913 0.660386
vn 0.017290 0.660234 -0.750861
vn 0.017290 0.660234 -0.750861
vn 0.017290 0.660234 -0.750861
vn 0.017290 0.660234 -0.750861
vn -0.004540 -0.750915 -0.660383
vn -0.004540 -0.750915 -0.660384
vn -0.004540 -0.750915 -0.660383
vn -0.004540 -0.750915 -0.660384
vn 0.999840 -0.014827 0.009986
vn 0.999840 -0.014827 0.009986
vn 0.999840 -0.014827 0.009986
vn 0.999840 -0.014827 0.009986
vn -0.999840 0.014827 -0.009986
vn -0.999840 0.014827 -0.009986
vn -0.999840 0.014827 -0.009986
vn -0.999840 0.014827 -0.009986
s 1
g pCylinder2
usemtl initialShadingGroup
f 1/21/1 2/22/2 22/43/3 21/42/4
f 2/22/2 3/23/5 23/44/6 22/43/3
f 3/23/5 4/24/7 24/45/8 23/44/6
f 4/24/7 5/25/9 25/46/10 24/45/8
f 5/25/9 6/26/11 26/47/12 25/46/10
f 6/26/11 7/27/13 27/48/14 26/47/12
f 7/27/13 8/28/15 28/49/16 27/48/14
f 8/28/15 9/29/17 29/50/18 28/49/16
f 9/29/17 10/30/19 30/51/20 29/50/18
f 10/30/19 11/31/21 31/52/22 30/51/20
f 11/31/21 12/32/23 32/53/24 31/52/22
f 12/32/23 13/33/25 33/54/26 32/53/24
f 13/33/25 14/34/27 34/55/28 33/54/26
f 14/34/27 15/35/29 35/56/30 34/55/28
f 15/35/29 16/36/31 36/57/32 35/56/30
f 16/36/31 17/37/33 37/58/34 36/57/32
f 17/37/33 18/38/35 38/59/36 37/58/34
f 18/38/35 19/39/37 39/60/38 38/59/36
f 19/39/37 20/40/39 40/61/40 39/60/38
f 20/40/39 1/41/1 21/62/4 40/61/40
s 2
f 2/2/41 1/1/42 41/63/43
f 3/3/44 2/2/41 41/63/43
f 4/4/45 3/3/44 41/63/43
f 5/5/46 4/4/45 41/63/43
f 6/6/47 5/5/46 41/63/43
f 7/7/48 6/6/47 41/63/43
f 8/8/49 7/7/48 41/63/43
f 9/9/50 8/8/49 41/63/43
f 10/10/51 9/9/50 41/63/43
f 11/11/52 10/10/51 41/63/43
f 12/12/53 11/11/52 41/63/43
f 13/13/54 12/12/53 41/63/43
f 14/14/55 13/13/54 41/63/43
f 15/15/56 14/14/55 41/63/43
f 16/16/57 15/15/56 41/63/43
f 17/17/58 16/16/57 41/63/43
f 18/18/59 17/17/58 41/63/43
f 19/19/60 18/18/59 41/63/43
f 20/20/61 19/19/60 41/63/43
f 1/1/42 20/20/61 41/63/43
s off
f 42/64/62 43/65/63 45/66/64 44/67/65
f 44/67/66 45/66/67 47/68/68 46/69/69
f 46/69/70 47/68/71 49/70/72 48/71/73
f 48/71/74 49/70/75 43/72/76 42/73/77
f 43/65/78 49/74/79 47/75/80 45/66/81
f 48/76/82 42/64/83 44/67/84 46/77/85
