# This file uses centimeters as units for non-parametric coordinates.

mtllib test.mtl
g default
v -0.961465 0.001806 -1.014676
v 0.000000 0.001806 -1.014676
v 0.961465 0.001806 -1.014676
v -0.961465 0.036887 -1.014676
v 0.000000 0.036887 -1.014676
v 0.961465 0.036887 -1.014676
v -0.961465 0.071967 -1.014676
v 0.000000 0.071967 -1.014676
v 0.961465 0.071967 -1.014676
v -0.853403 0.071967 -1.097218
v 0.000000 0.071967 -1.097218
v 0.864033 0.071967 -1.097218
v -0.479347 0.071967 -1.309999
v 0.000000 0.071967 -1.400863
v 0.537671 0.071967 -1.266820
v -0.479347 0.036887 -1.309999
v 0.000000 0.036887 -1.400863
v 0.537671 0.036887 -1.266820
v -0.479347 0.001806 -1.309999
v 0.000000 0.001806 -1.400863
v 0.537671 0.001806 -1.266820
v -0.853403 0.001806 -1.097218
v 0.000000 0.001806 -1.097218
v 0.864033 0.001806 -1.097218
v 0.864033 0.036887 -1.097218
v -0.853403 0.036887 -1.097218
vt -0.536810 -0.009005
vt 0.049553 0.521142
vt -0.741989 -0.009005
vt -0.536810 0.093561
vt 0.489281 0.521142
vt -0.741989 0.093561
vt -0.536810 0.196127
vt 0.489281 0.533159
vt -0.741989 0.196127
vt 0.126749 0.918328
vt 0.246062 0.918328
vt 0.246062 0.928523
vt -0.741965 -0.009052
vt -0.639399 -0.009052
vt -0.536833 -0.009052
vt -0.741965 0.093514
vt -0.639399 0.093514
vt -0.536833 0.093514
vt -0.741965 0.196080
vt -0.639399 0.196080
vt -0.536833 0.196080
vt 0.140159 0.928523
vt 0.365375 0.918328
vt 0.353284 0.928523
vt 0.246062 0.966027
vt 0.186578 0.954804
vt 0.312784 0.949471
vt -0.536856 -0.009005
vt -0.639423 -0.009005
vt -0.536856 0.093561
vt -0.639423 0.093561
vt -0.536856 0.196127
vt -0.639423 0.196127
vt -0.741942 -0.009005
vt -0.639376 -0.009005
vt -0.741942 0.093561
vt -0.639376 0.093561
vt -0.741942 0.196127
vt -0.639376 0.196127
vt 0.186578 0.954804
vt 0.246062 0.966027
vt 0.246062 0.928523
vt 0.140159 0.928523
vt 0.312784 0.949471
vt 0.353284 0.928523
vt 0.246062 0.918328
vt 0.126749 0.918328
vt 0.365375 0.918328
vt 0.049553 0.533159
vt 0.929009 0.521142
vt 0.929009 0.533159
vt 0.489281 0.545176
vt 0.049553 0.545176
vt 0.929009 0.545176
vn 0.000000 0.000000 1.000000
vn 0.000000 0.000000 1.000000
vn 0.000000 0.000000 1.000000
vn 0.000000 0.000000 1.000000
vn 0.000000 0.000000 1.000000
vn 0.000000 0.000000 1.000000
vn 0.000000 0.000000 1.000000
vn 0.000000 0.000000 1.000000
vn 0.000000 0.000000 1.000000
vn 0.000000 1.000000 -0.000000
vn 0.000000 1.000000 -0.000000
vn 0.000000 1.000000 0.000000
vn 0.000000 1.000000 -0.000000
vn 0.000000 1.000000 0.000000
vn 0.000000 1.000000 0.000000
vn 0.000000 1.000000 0.000000
vn 0.000000 1.000000 0.000000
vn 0.000000 1.000000 0.000000
vn -0.186243 0.000000 -0.982504
vn 0.042418 0.000000 -0.999100
vn 0.042418 0.000000 -0.999100
vn -0.186242 0.000000 -0.982504
vn 0.241899 0.000000 -0.970301
vn 0.241899 0.000000 -0.970301
vn 0.042418 0.000000 -0.999100
vn -0.186242 0.000000 -0.982504
vn 0.241899 0.000000 -0.970302
vn 0.000000 -1.000000 0.000000
vn 0.000000 -1.000000 0.000000
vn 0.000000 -1.000000 0.000000
vn 0.000000 -1.000000 0.000000
vn 0.000000 -1.000000 0.000000
vn 0.000000 -1.000000 0.000000
vn 0.000000 -1.000000 0.000000
vn 0.000000 -1.000000 0.000000
vn 0.000000 -1.000000 0.000000
vn 0.511314 0.000000 -0.859394
vn 0.461126 0.000000 -0.887335
vn 0.461126 0.000000 -0.887335
vn 0.511314 0.000000 -0.859394
vn 0.646399 0.000000 -0.763000
vn 0.646399 0.000000 -0.763000
vn 0.461126 0.000000 -0.887335
vn 0.511314 0.000000 -0.859394
vn 0.646399 0.000000 -0.763000
vn -0.494445 0.000000 -0.869209
vn -0.522345 0.000000 -0.852734
vn -0.522345 0.000000 -0.852734
vn -0.494445 0.000000 -0.869209
vn -0.607019 0.000000 -0.794687
vn -0.607019 0.000000 -0.794687
vn -0.522345 0.000000 -0.852734
vn -0.494445 0.000000 -0.869209
vn -0.607019 0.000000 -0.794687
s 1
g pCube1
usemtl lambert2SG
f 1/2/1 2/5/2 5/8/3 4/49/4
f 2/5/2 3/50/5 6/51/6 5/8/3
f 4/49/4 5/8/3 8/52/7 7/53/8
f 5/8/3 6/51/6 9/54/9 8/52/7
s 2
f 7/10/10 8/11/11 11/12/12 10/22/13
f 8/11/11 9/23/14 12/24/15 11/12/12
f 10/22/13 11/12/12 14/25/16 13/26/17
f 11/12/12 12/24/15 15/27/18 14/25/16
s 3
f 13/13/19 14/14/20 17/17/21 16/16/22
f 14/14/20 15/15/23 18/18/24 17/17/21
f 16/16/22 17/17/21 20/20/25 19/19/26
f 17/17/21 18/18/24 21/21/27 20/20/25
s 4
f 19/40/28 20/41/29 23/42/30 22/43/31
f 20/41/29 21/44/32 24/45/33 23/42/30
f 22/43/31 23/42/30 2/46/34 1/47/35
f 23/42/30 24/45/33 3/48/36 2/46/34
s 5
f 24/29/37 21/28/38 18/30/39 25/31/40
f 3/3/41 24/29/37 25/31/40 6/6/42
f 25/31/40 18/30/39 15/32/43 12/33/44
f 6/6/42 25/31/40 12/33/44 9/9/45
s 6
f 19/34/46 22/35/47 26/37/48 16/36/49
f 22/35/47 1/1/50 4/4/51 26/37/48
f 16/36/49 26/37/48 10/39/52 13/38/53
f 26/37/48 4/4/51 7/7/54 10/39/52
g default
v 0.961465 0.001806 1.018742
v -0.000000 0.001806 1.018742
v -0.961465 0.001806 1.018742
v 0.961465 0.036887 1.018742
v -0.000000 0.036887 1.018742
v -0.961465 0.036887 1.018742
v 0.961465 0.071967 1.018742
v -0.000000 0.071967 1.018742
v -0.961465 0.071967 1.018742
v 0.853403 0.071967 1.101284
v -0.000000 0.071967 1.101284
v -0.864033 0.071967 1.101284
v 0.479347 0.071967 1.314065
v -0.000000 0.071967 1.404929
v -0.537671 0.071967 1.270886
v 0.479347 0.036887 1.314065
v -0.000000 0.036887 1.404929
v -0.537671 0.036887 1.270886
v 0.479347 0.001806 1.314065
v -0.000000 0.001806 1.404929
v -0.537671 0.001806 1.270886
v 0.853403 0.001806 1.101284
v -0.000000 0.001806 1.101284
v -0.864033 0.001806 1.101284
v -0.864033 0.036887 1.101284
v 0.853403 0.036887 1.101284
vt -0.536810 -0.009005
vt 0.929009 0.521142
vt -0.741989 -0.009005
vt -0.536810 0.093561
vt 0.489281 0.521142
vt -0.741989 0.093561
vt -0.536810 0.196127
vt 0.489281 0.533159
vt -0.741989 0.196127
vt 0.365375 0.667179
vt 0.246062 0.667179
vt 0.246062 0.656984
vt -0.741965 -0.009052
vt -0.639399 -0.009052
vt -0.536833 -0.009052
vt -0.741965 0.093514
vt -0.639399 0.093514
vt -0.536833 0.093514
vt -0.741965 0.196080
vt -0.639399 0.196080
vt -0.536833 0.196080
vt 0.351965 0.656984
vt 0.126749 0.667179
vt 0.138840 0.656984
vt 0.246062 0.619480
vt 0.305547 0.630703
vt 0.179340 0.636036
vt -0.536856 -0.009005
vt -0.639422 -0.009005
vt -0.536856 0.093561
vt -0.639422 0.093561
vt -0.536856 0.196127
vt -0.639422 0.196127
vt -0.741942 -0.009005
vt -0.639376 -0.009005
vt -0.741942 0.093561
vt -0.639376 0.093561
vt -0.741942 0.196127
vt -0.639376 0.196127
vt 0.305547 0.630703
vt 0.246062 0.619480
vt 0.246062 0.656984
vt 0.351965 0.656984
vt 0.179340 0.636036
vt 0.138840 0.656984
vt 0.246062 0.667179
vt 0.365375 0.667179
vt 0.126749 0.667179
vt 0.929009 0.533159
vt 0.049553 0.521142
vt 0.049553 0.533159
vt 0.489281 0.545176
vt 0.929009 0.545176
vt 0.049553 0.545176
vn 0.000000 0.000000 -1.000000
vn 0.000000 0.000000 -1.000000
vn 0.000000 0.000000 -1.000000
vn 0.000000 0.000000 -1.000000
vn 0.000000 0.000000 -1.000000
vn 0.000000 0.000000 -1.000000
vn 0.000000 0.000000 -1.000000
vn 0.000000 0.000000 -1.000000
vn 0.000000 0.000000 -1.000000
vn -0.000000 1.000000 0.000000
vn -0.000000 1.000000 0.000000
vn 0.000000 1.000000 -0.000000
vn -0.000000 1.000000 0.000000
vn 0.000000 1.000000 -0.000000
vn 0.000000 1.000000 -0.000000
vn 0.000000 1.000000 -0.000000
vn 0.000000 1.000000 -0.000000
vn 0.000000 1.000000 -0.000000
vn 0.186242 0.000000 0.982504
vn -0.042418 0.000000 0.999100
vn -0.042418 0.000000 0.999100
vn 0.186242 0.000000 0.982504
vn -0.241899 0.000000 0.970301
vn -0.241899 0.000000 0.970301
vn -0.042418 0.000000 0.999100
vn 0.186242 0.000000 0.982504
vn -0.241899 0.000000 0.970302
vn 0.000000 -1.000000 0.000000
vn 0.000000 -1.000000 -0.000000
vn 0.000000 -1.000000 -0.000000
vn 0.000000 -1.000000 -0.000000
vn 0.000000 -1.000000 -0.000000
vn 0.000000 -1.000000 -0.000000
vn 0.000000 -1.000000 -0.000000
vn 0.000000 -1.000000 -0.000000
vn 0.000000 -1.000000 0.000000
vn -0.511314 0.000000 0.859394
vn -0.461126 0.000000 0.887335
vn -0.461126 0.000000 0.887335
vn -0.511314 0.000000 0.859394
vn -0.646399 0.000000 0.763000
vn -0.646399 0.000000 0.763000
vn -0.461126 0.000000 0.887335
vn -0.511314 0.000000 0.859394
vn -0.646399 0.000000 0.763000
vn 0.494445 0.000000 0.869209
vn 0.522345 0.000000 0.852734
vn 0.522345 0.000000 0.852734
vn 0.494445 0.000000 0.869209
vn 0.607019 0.000000 0.794687
vn 0.607019 0.000000 0.794687
vn 0.522345 0.000000 0.852734
vn 0.494445 0.000000 0.869209
vn 0.607019 0.000000 0.794687
s 1
g pCube2
usemtl lambert2SG
f 27/56/55 28/59/56 31/62/57 30/103/58
f 28/59/56 29/104/59 32/105/60 31/62/57
f 30/103/58 31/62/57 34/106/61 33/107/62
f 31/62/57 32/105/60 35/108/63 34/106/61
s 2
f 33/64/64 34/65/65 37/66/66 36/76/67
f 34/65/65 35/77/68 38/78/69 37/66/66
f 36/76/67 37/66/66 40/79/70 39/80/71
f 37/66/66 38/78/69 41/81/72 40/79/70
s 3
f 39/67/73 40/68/74 43/71/75 42/70/76
f 40/68/74 41/69/77 44/72/78 43/71/75
f 42/70/76 43/71/75 46/74/79 45/73/80
f 43/71/75 44/72/78 47/75/81 46/74/79
s 4
f 45/94/82 46/95/83 49/96/84 48/97/85
f 46/95/83 47/98/86 50/99/87 49/96/84
f 48/97/85 49/96/84 28/100/88 27/101/89
f 49/96/84 50/99/87 29/102/90 28/100/88
s 5
f 50/83/91 47/82/92 44/84/93 51/85/94
f 29/57/95 50/83/91 51/85/94 32/60/96
f 51/85/94 44/84/93 41/86/97 38/87/98
f 32/60/96 51/85/94 38/87/98 35/63/99
s 6
f 45/88/100 48/89/101 52/91/102 42/90/103
f 48/89/101 27/55/104 30/58/105 52/91/102
f 42/90/103 52/91/102 36/93/106 39/92/107
f 52/91/102 30/58/105 33/61/108 36/93/106
g default
v 0.823343 0.001806 -1.113630
v 0.823343 0.001806 -0.013846
v 0.823343 0.001806 1.085938
v 0.823343 0.036887 -1.113630
v 0.823343 0.036887 -0.013846
v 0.823343 0.036887 1.085938
v 0.823343 0.071967 -1.113630
v 0.823343 0.071967 -0.013846
v 0.823343 0.071967 1.085938
v 0.945377 0.071967 -0.990022
v 0.945377 0.071967 -0.013846
v 0.979090 0.071967 0.969647
v 1.259958 0.071967 -0.562152
v 1.394294 0.071967 -0.013846
v 1.247151 0.071967 0.601176
v 1.259958 0.036887 -0.481523
v 1.394294 0.036887 -0.013846
v 1.247151 0.036887 0.601176
v 1.259958 0.001806 -0.481523
v 1.394294 0.001806 -0.013846
v 1.247151 0.001806 0.601176
v 0.945377 0.001806 -0.990022
v 0.945377 0.001806 -0.013846
v 0.979090 0.001806 0.969647
v 0.979090 0.036887 0.969647
v 0.945377 0.036887 -0.990022
vt -0.536810 -0.009005
vt 0.929434 0.519562
vt -0.741989 -0.009005
vt -0.536810 0.093561
vt 0.492368 0.519562
vt -0.741989 0.093561
vt -0.536810 0.196127
vt 0.492368 0.532087
vt -0.741989 0.196127
vt 0.348235 0.930550
vt 0.348235 0.794715
vt 0.363379 0.794715
vt -0.741965 -0.009052
vt -0.639399 -0.009052
vt -0.536833 -0.009052
vt -0.741965 0.093514
vt -0.639399 0.093514
vt -0.536833 0.093514
vt -0.741965 0.196080
vt -0.639399 0.196080
vt -0.536833 0.196080
vt 0.363379 0.915283
vt 0.348235 0.658879
vt 0.367563 0.673243
vt 0.419087 0.794715
vt 0.402417 0.862437
vt 0.400828 0.718753
vt -0.536856 -0.009005
vt -0.639422 -0.009005
vt -0.536856 0.093561
vt -0.639422 0.093561
vt -0.536856 0.196127
vt -0.639422 0.196127
vt -0.741942 -0.009005
vt -0.639376 -0.009005
vt -0.741942 0.093561
vt -0.639376 0.093561
vt -0.741942 0.196127
vt -0.639376 0.196127
vt 0.402417 0.852478
vt 0.419087 0.794715
vt 0.363379 0.794715
vt 0.363379 0.915283
vt 0.400828 0.718753
vt 0.367563 0.673243
vt 0.348235 0.794715
vt 0.348235 0.930550
vt 0.348235 0.658879
vt 0.929434 0.532087
vt 0.055303 0.519562
vt 0.055303 0.532087
vt 0.492368 0.544612
vt 0.929434 0.544612
vt 0.055303 0.544612
vn -1.000000 0.000000 0.000000
vn -1.000000 0.000000 0.000000
vn -1.000000 0.000000 0.000000
vn -1.000000 0.000000 0.000000
vn -1.000000 0.000000 0.000000
vn -1.000000 0.000000 0.000000
vn -1.000000 0.000000 0.000000
vn -1.000000 0.000000 0.000000
vn -1.000000 0.000000 0.000000
vn 0.000000 1.000000 -0.000000
vn 0.000000 1.000000 -0.000000
vn -0.000000 1.000000 0.000000
vn 0.000000 1.000000 -0.000000
vn 0.000000 1.000000 0.000000
vn -0.000000 1.000000 0.000000
vn -0.000000 1.000000 0.000000
vn -0.000000 1.000000 0.000000
vn -0.000000 1.000000 0.000000
vn 0.927562 -0.281889 -0.245291
vn 0.990620 -0.136180 0.011297
vn 0.997493 -0.069816 0.011583
vn 0.952936 -0.151985 -0.262323
vn 0.972553 0.000000 0.232682
vn 0.972553 0.000000 0.232682
vn 0.999930 0.000000 0.011827
vn 0.961135 0.000000 -0.276079
vn 0.972553 0.000000 0.232682
vn 0.000000 -1.000000 0.000000
vn 0.000000 -1.000000 -0.000000
vn -0.000000 -1.000000 0.000000
vn -0.000000 -1.000000 0.000000
vn 0.000000 -1.000000 -0.000000
vn 0.000000 -1.000000 -0.000000
vn -0.000000 -1.000000 0.000000
vn -0.000000 -1.000000 0.000000
vn 0.000000 -1.000000 0.000000
vn 0.752852 0.000001 0.658189
vn 0.808650 0.000001 0.588289
vn 0.808650 0.000001 0.588289
vn 0.752852 0.000000 0.658189
vn 0.598288 0.000000 0.801281
vn 0.598288 0.000000 0.801281
vn 0.808650 0.000000 0.588289
vn 0.752853 0.000000 0.658189
vn 0.598288 0.000000 0.801281
vn 0.850418 0.000000 -0.526108
vn 0.822800 0.000000 -0.568332
vn 0.791484 -0.233790 -0.564709
vn 0.803047 -0.295969 -0.517221
vn 0.711624 0.000000 -0.702560
vn 0.711624 0.000000 -0.702560
vn 0.722157 -0.441156 -0.532796
vn 0.698819 -0.539607 -0.469549
vn 0.711624 0.000000 -0.702560
s 1
g pCube4
usemtl lambert2SG
f 53/110/109 54/113/110 57/116/111 56/157/112
f 54/113/110 55/158/113 58/159/114 57/116/111
f 56/157/112 57/116/111 60/160/115 59/161/116
f 57/116/111 58/159/114 61/162/117 60/160/115
s 2
f 59/118/118 60/119/119 63/120/120 62/130/121
f 60/119/119 61/131/122 64/132/123 63/120/120
f 62/130/121 63/120/120 66/133/124 65/134/125
f 63/120/120 64/132/123 67/135/126 66/133/124
s 3
f 65/121/127 66/122/128 69/125/129 68/124/130
f 66/122/128 67/123/131 70/126/132 69/125/129
f 68/124/130 69/125/129 72/128/133 71/127/134
f 69/125/129 70/126/132 73/129/135 72/128/133
s 4
f 71/148/136 72/149/137 75/150/138 74/151/139
f 72/149/137 73/152/140 76/153/141 75/150/138
f 74/151/139 75/150/138 54/154/142 53/155/143
f 75/150/138 76/153/141 55/156/144 54/154/142
s 5
f 76/137/145 73/136/146 70/138/147 77/139/148
f 55/111/149 76/137/145 77/139/148 58/114/150
f 77/139/148 70/138/147 67/140/151 64/141/152
f 58/114/150 77/139/148 64/141/152 61/117/153
s 6
f 71/142/154 74/143/155 78/145/156 68/144/157
f 74/143/155 53/109/158 56/112/159 78/145/156
f 68/144/157 78/145/156 62/147/160 65/146/161
f 78/145/156 56/112/159 59/115/162 62/147/160
g default
v -0.827344 0.001806 1.085938
v -0.827344 0.001806 -0.013846
v -0.827344 0.001806 -1.113630
v -0.827344 0.036887 1.085938
v -0.827344 0.036887 -0.013846
v -0.827344 0.036887 -1.113630
v -0.827344 0.071967 1.085938
v -0.827344 0.071967 -0.013846
v -0.827344 0.071967 -1.113630
v -0.949377 0.071967 0.962330
v -0.949377 0.071967 -0.013846
v -0.983091 0.071967 -0.997339
v -1.263958 0.071967 0.534460
v -1.398295 0.071967 -0.013846
v -1.251152 0.071967 -0.628868
v -1.263958 0.036887 0.453831
v -1.398295 0.036887 -0.013846
v -1.251152 0.036887 -0.628868
v -1.263958 0.001806 0.453831
v -1.398295 0.001806 -0.013846
v -1.251152 0.001806 -0.628868
v -0.949377 0.001806 0.962330
v -0.949377 0.001806 -0.013846
v -0.983091 0.001806 -0.997339
v -0.983091 0.036887 -0.997339
v -0.949377 0.036887 0.962330
vt -0.536810 -0.009005
vt 0.055303 0.519562
vt -0.741989 -0.009005
vt -0.536810 0.093561
vt 0.492368 0.519562
vt -0.741989 0.093561
vt -0.536810 0.196127
vt 0.492368 0.532087
vt -0.741989 0.196127
vt 0.143393 0.658879
vt 0.143393 0.794715
vt 0.128249 0.794715
vt -0.741965 -0.009052
vt -0.639399 -0.009052
vt -0.536833 -0.009052
vt -0.741965 0.093514
vt -0.639399 0.093514
vt -0.536833 0.093514
vt -0.741965 0.196080
vt -0.639399 0.196080
vt -0.536833 0.196080
vt 0.128249 0.674146
vt 0.143393 0.930550
vt 0.124065 0.916187
vt 0.072541 0.794715
vt 0.089211 0.726993
vt 0.090800 0.870677
vt -0.536856 -0.009005
vt -0.639422 -0.009005
vt -0.536856 0.093561
vt -0.639422 0.093561
vt -0.536856 0.196127
vt -0.639422 0.196127
vt -0.741942 -0.009005
vt -0.639376 -0.009005
vt -0.741942 0.093561
vt -0.639376 0.093561
vt -0.741942 0.196127
vt -0.639376 0.196127
vt 0.089211 0.736951
vt 0.072541 0.794715
vt 0.128249 0.794715
vt 0.128249 0.674146
vt 0.090800 0.870677
vt 0.124065 0.916187
vt 0.143393 0.794715
vt 0.143393 0.658879
vt 0.143393 0.930550
vt 0.055303 0.532087
vt 0.929434 0.519562
vt 0.929434 0.532087
vt 0.492368 0.544612
vt 0.055303 0.544612
vt 0.929434 0.544612
vn 1.000000 0.000000 0.000000
vn 1.000000 0.000000 0.000000
vn 1.000000 0.000000 0.000000
vn 1.000000 0.000000 0.000000
vn 1.000000 0.000000 0.000000
vn 1.000000 0.000000 0.000000
vn 1.000000 0.000000 0.000000
vn 1.000000 0.000000 0.000000
vn 1.000000 0.000000 0.000000
vn -0.000000 1.000000 -0.000000
vn -0.000000 1.000000 -0.000000
vn 0.000000 1.000000 0.000000
vn -0.000000 1.000000 -0.000000
vn 0.000000 1.000000 0.000000
vn 0.000000 1.000000 0.000000
vn 0.000000 1.000000 0.000000
vn 0.000000 1.000000 0.000000
vn 0.000000 1.000000 0.000000
vn -0.927562 -0.281888 0.245291
vn -0.990620 -0.136180 -0.011297
vn -0.997493 -0.069815 -0.011583
vn -0.952936 -0.151985 0.262323
vn -0.972553 0.000000 -0.232682
vn -0.972553 0.000000 -0.232682
vn -0.999930 0.000000 -0.011827
vn -0.961135 0.000000 0.276079
vn -0.972553 0.000000 -0.232682
vn 0.000000 -1.000000 0.000000
vn 0.000000 -1.000000 0.000000
vn 0.000000 -1.000000 0.000000
vn 0.000000 -1.000000 0.000000
vn 0.000000 -1.000000 0.000000
vn 0.000000 -1.000000 0.000000
vn 0.000000 -1.000000 0.000000
vn 0.000000 -1.000000 0.000000
vn 0.000000 -1.000000 0.000000
vn -0.752852 0.000000 -0.658189
vn -0.808650 0.000000 -0.588290
vn -0.808650 0.000000 -0.588290
vn -0.752852 0.000000 -0.658189
vn -0.598288 0.000000 -0.801281
vn -0.598288 0.000000 -0.801281
vn -0.808650 0.000000 -0.588290
vn -0.752852 0.000000 -0.658189
vn -0.598288 0.000000 -0.801281
vn -0.850418 0.000000 0.526108
vn -0.822800 0.000000 0.568332
vn -0.791484 -0.233790 0.564709
vn -0.803047 -0.295969 0.517221
vn -0.711624 0.000000 0.702560
vn -0.711624 0.000000 0.702560
vn -0.722157 -0.441155 0.532796
vn -0.698820 -0.539606 0.469549
vn -0.711624 0.000000 0.702560
s 1
g pCube5
usemtl lambert2SG
f 79/164/163 80/167/164 83/170/165 82/211/166
f 80/167/164 81/212/167 84/213/168 83/170/165
f 82/211/166 83/170/165 86/214/169 85/215/170
f 83/170/165 84/213/168 87/216/171 86/214/169
s 2
f 85/172/172 86/173/173 89/174/174 88/184/175
f 86/173/173 87/185/176 90/186/177 89/174/174
f 88/184/175 89/174/174 92/187/178 91/188/179
f 89/174/174 90/186/177 93/189/180 92/187/178
s 3
f 91/175/181 92/176/182 95/179/183 94/178/184
f 92/176/182 93/177/185 96/180/186 95/179/183
f 94/178/184 95/179/183 98/182/187 97/181/188
f 95/179/183 96/180/186 99/183/189 98/182/187
s 4
f 97/202/190 98/203/191 101/204/192 100/205/193
f 98/203/191 99/206/194 102/207/195 101/204/192
f 100/205/193 101/204/192 80/208/196 79/209/197
f 101/204/192 102/207/195 81/210/198 80/208/196
s 5
f 102/191/199 99/190/200 96/192/201 103/193/202
f 81/165/203 102/191/199 103/193/202 84/168/204
f 103/193/202 96/192/201 93/194/205 90/195/206
f 84/168/204 103/193/202 90/195/206 87/171/207
s 6
f 97/196/208 100/197/209 104/199/210 94/198/211
f 100/197/209 79/163/212 82/166/213 104/199/210
f 94/198/211 104/199/210 88/201/214 91/200/215
f 104/199/210 82/166/213 85/169/216 88/201/214
g default
v -0.948331 0.128029 0.334937
v -0.859943 0.039305 0.334937
v -0.915732 0.160504 0.334937
v -0.827345 0.071780 0.334937
v -0.915732 0.160504 -0.334937
v -0.827345 0.071780 -0.334937
v -0.948331 0.128029 -0.334937
v -0.859943 0.039305 -0.334937
vt 0.755415 0.644021
vt 0.838071 0.644021
vt 0.755415 0.726677
vt 0.838071 0.726677
vt 0.755415 0.809334
vt 0.838071 0.809334
vt 0.755415 0.891990
vt 0.838071 0.891990
vt 0.755415 0.974646
vt 0.838071 0.974646
vt 0.920727 0.644021
vt 0.920727 0.726677
vt 0.672758 0.644021
vt 0.672758 0.726677
vt 0.038135 0.464399
vt 0.038135 0.283249
vt 0.969246 0.283249
vt 0.969246 0.464399
vn 0.000000 -0.000000 1.000000
vn 0.000000 -0.000000 1.000000
vn 0.000000 -0.000000 1.000000
vn 0.000000 -0.000000 1.000000
vn 0.708450 0.705761 0.000000
vn 0.708450 0.705761 0.000000
vn 0.708450 0.705761 0.000000
vn 0.708450 0.705761 0.000000
vn 0.000000 0.000000 -1.000000
vn 0.000000 0.000000 -1.000000
vn 0.000000 0.000000 -1.000000
vn 0.000000 0.000000 -1.000000
vn -0.708450 -0.705761 0.000000
vn -0.708450 -0.705761 0.000000
vn -0.708450 -0.705761 0.000000
vn -0.708450 -0.705761 0.000000
vn 0.705760 -0.708451 0.000000
vn 0.705760 -0.708451 0.000000
vn 0.705760 -0.708451 0.000000
vn 0.705760 -0.708451 0.000000
vn -0.705760 0.708451 0.000000
vn -0.705760 0.708451 0.000000
vn -0.705760 0.708451 0.000000
vn -0.705760 0.708451 0.000000
s off
g pCube7
usemtl lambert2SG
f 105/217/217 106/218/218 108/220/219 107/219/220
f 107/231/221 108/232/222 110/233/223 109/234/224
f 109/221/225 110/222/226 112/224/227 111/223/228
f 111/223/229 112/224/230 106/226/231 105/225/232
f 106/218/233 112/227/234 110/228/235 108/220/236
f 111/229/237 105/217/238 107/219/239 109/230/240
g default
v 0.856028 0.039305 0.334937
v 0.944415 0.128029 0.334937
v 0.823430 0.071780 0.334937
v 0.911816 0.160504 0.334937
v 0.823430 0.071780 -0.334937
v 0.911816 0.160504 -0.334937
v 0.856028 0.039305 -0.334937
v 0.944415 0.128029 -0.334937
vt 0.755415 0.644021
vt 0.838071 0.644021
vt 0.755415 0.726677
vt 0.838071 0.726677
vt 0.755415 0.809334
vt 0.838071 0.809334
vt 0.755415 0.891990
vt 0.838071 0.891990
vt 0.755415 0.974646
vt 0.838071 0.974646
vt 0.920727 0.644021
vt 0.920727 0.726677
vt 0.672758 0.644021
vt 0.672758 0.726677
vt 0.970221 0.284940
vt 0.970221 0.469210
vt 0.040684 0.469210
vt 0.040684 0.284940
vn 0.000000 0.000000 1.000000
vn 0.000000 0.000000 1.000000
vn 0.000000 0.000000 1.000000
vn 0.000000 0.000000 1.000000
vn -0.708451 0.705760 0.000000
vn -0.708451 0.705760 0.000000
vn -0.708451 0.705760 0.000000
vn -0.708451 0.705760 0.000000
vn 0.000000 0.000000 -1.000000
vn 0.000000 0.000000 -1.000000
vn 0.000000 0.000000 -1.000000
vn 0.000000 0.000000 -1.000000
vn 0.708451 -0.705760 0.000000
vn 0.708451 -0.705760 0.000000
vn 0.708451 -0.705760 0.000000
vn 0.708451 -0.705760 0.000000
vn 0.705760 0.708451 0.000000
vn 0.705760 0.708451 0.000000
vn 0.705760 0.708451 0.000000
vn 0.705760 0.708451 0.000000
vn -0.705760 -0.708451 0.000000
vn -0.705760 -0.708451 0.000000
vn -0.705760 -0.708451 0.000000
vn -0.705760 -0.708451 0.000000
s off
g pCube8
usemtl lambert2SG
f 113/235/241 114/236/242 116/238/243 115/237/244
f 115/249/245 116/250/246 118/251/247 117/252/248
f 117/239/249 118/240/250 120/242/251 119/241/252
f 119/241/253 120/242/254 114/244/255 113/243/256
f 114/236/257 120/245/258 118/246/259 116/238/260
f 119/247/261 113/235/262 115/237/263 117/248/264
