# This file uses centimeters as units for non-parametric coordinates.

mtllib rightarm.mtl
g default
v -1.108827 1.452201 0.267078
v -0.609173 1.452201 0.267078
v -1.108827 2.991799 0.267078
v -0.609173 2.991799 0.267078
v -1.108827 2.991799 -0.267078
v -0.609173 2.991799 -0.267078
v -1.108827 1.452201 -0.267078
v -0.609173 1.452201 -0.267078
vt 0.416514 0.166056
vt 0.583486 0.166056
vt 0.416514 0.333028
vt 0.583486 0.333028
vt 0.416514 0.500000
vt 0.583486 0.500000
vt 0.416514 0.666972
vt 0.583486 0.666972
vt 0.416514 0.833944
vt 0.583486 0.833944
vt 0.750458 0.166056
vt 0.750458 0.333028
vt 0.249542 0.166056
vt 0.249542 0.333028
vn 0.000000 0.000000 1.000000
vn 0.000000 0.000000 1.000000
vn 0.000000 0.000000 1.000000
vn 0.000000 0.000000 1.000000
vn 0.000000 1.000000 0.000000
vn 0.000000 1.000000 0.000000
vn 0.000000 1.000000 0.000000
vn 0.000000 1.000000 0.000000
vn 0.000000 0.000000 -1.000000
vn 0.000000 0.000000 -1.000000
vn 0.000000 0.000000 -1.000000
vn 0.000000 0.000000 -1.000000
vn 0.000000 -1.000000 0.000000
vn 0.000000 -1.000000 0.000000
vn 0.000000 -1.000000 0.000000
vn 0.000000 -1.000000 0.000000
vn 1.000000 0.000000 0.000000
vn 1.000000 0.000000 0.000000
vn 1.000000 0.000000 0.000000
vn 1.000000 0.000000 0.000000
vn -1.000000 0.000000 0.000000
vn -1.000000 0.000000 0.000000
vn -1.000000 0.000000 0.000000
vn -1.000000 0.000000 0.000000
s 1
g pCube9
usemtl initialShadingGroup
f 1/1/1 2/2/2 3/3/3
f 3/3/3 2/2/2 4/4/4
s 2
f 3/3/5 4/4/6 5/5/7
f 5/5/7 4/4/6 6/6/8
s 3
f 5/5/9 6/6/10 7/7/11
f 7/7/11 6/6/10 8/8/12
s 4
f 7/7/13 8/8/14 1/9/15
f 1/9/15 8/8/14 2/10/16
s 5
f 2/2/17 8/11/18 4/4/19
f 4/4/19 8/11/18 6/12/20
s 6
f 7/13/21 1/1/22 5/14/23
f 5/14/23 1/1/22 3/3/24
