# This file uses centimeters as units for non-parametric coordinates.

mtllib Button.mtl
g default
v 0.253845 1.873355 0.223255
v 0.219612 1.940540 0.223255
v 0.166294 1.993859 0.223255
v 0.099108 2.028092 0.223255
v 0.024632 2.039887 0.223255
v -0.049843 2.028092 0.223255
v -0.117029 1.993859 0.223255
v -0.170348 1.940540 0.223255
v -0.204580 1.873355 0.223255
v -0.216376 1.798879 0.223255
v -0.204580 1.724403 0.223255
v -0.170348 1.657218 0.223255
v -0.117029 1.603899 0.223255
v -0.049843 1.569666 0.223255
v 0.024632 1.557870 0.223255
v 0.099108 1.569666 0.223255
v 0.166293 1.603899 0.223255
v 0.219612 1.657218 0.223255
v 0.253845 1.724403 0.223255
v 0.265641 1.798879 0.223255
v 0.253845 1.873355 0.421807
v 0.219612 1.940540 0.421807
v 0.166294 1.993859 0.421807
v 0.099108 2.028092 0.421807
v 0.024632 2.039887 0.421807
v -0.049843 2.028092 0.421807
v -0.117029 1.993859 0.421807
v -0.170348 1.940540 0.421807
v -0.204580 1.873355 0.421807
v -0.216376 1.798879 0.421807
v -0.204580 1.724403 0.421807
v -0.170348 1.657218 0.421807
v -0.117029 1.603899 0.421807
v -0.049843 1.569666 0.421807
v 0.024632 1.557870 0.421807
v 0.099108 1.569666 0.421807
v 0.166293 1.603899 0.421807
v 0.219612 1.657218 0.421807
v 0.253845 1.724403 0.421807
v 0.265641 1.798879 0.421807
v 0.024632 1.798879 0.223255
v 0.024632 1.798879 0.421807
vt 0.618843 0.580644
vt 0.582590 0.652367
vt 0.582590 0.652367
vt 0.618843 0.580644
vt 0.526128 0.709287
vt 0.526128 0.709287
vt 0.454981 0.745831
vt 0.454981 0.745831
vt 0.376113 0.758424
vt 0.376113 0.758424
vt 0.297245 0.745831
vt 0.297245 0.745831
vt 0.226098 0.709287
vt 0.226098 0.709287
vt 0.169635 0.652367
vt 0.169635 0.652367
vt 0.133384 0.580644
vt 0.133384 0.580644
vt 0.120893 0.501138
vt 0.120893 0.501138
vt 0.133384 0.421633
vt 0.133384 0.421633
vt 0.169635 0.349910
vt 0.169635 0.349910
vt 0.226098 0.292991
vt 0.226098 0.292991
vt 0.297245 0.256446
vt 0.297245 0.256446
vt 0.376113 0.243853
vt 0.376113 0.243853
vt 0.454981 0.256446
vt 0.454981 0.256446
vt 0.526128 0.292991
vt 0.526128 0.292991
vt 0.582590 0.349910
vt 0.582590 0.349910
vt 0.618842 0.421633
vt 0.618842 0.421633
vt 0.631333 0.501138
vt 0.631333 0.501138
vt 0.376113 0.501138
vt 0.376113 0.501138
vt 0.727160 0.278036
vt 0.727270 0.232590
vt 0.856903 0.232903
vt 0.856793 0.278347
vt 0.727381 0.187143
vt 0.857014 0.187459
vt 0.857126 0.142015
vt 0.727605 0.096251
vt 0.725567 0.959712
vt 0.855200 0.960030
vt 0.725678 0.914268
vt 0.855311 0.914584
vt 0.725790 0.868824
vt 0.855422 0.869138
vt 0.725899 0.823380
vt 0.855532 0.823691
vt 0.726008 0.777937
vt 0.855641 0.778244
vt 0.726114 0.732493
vt 0.855747 0.732796
vt 0.726220 0.687050
vt 0.855853 0.687350
vt 0.726324 0.641606
vt 0.855957 0.641903
vt 0.726427 0.596161
vt 0.856060 0.596457
vt 0.726530 0.550716
vt 0.856163 0.551011
vt 0.726632 0.505270
vt 0.856265 0.505566
vt 0.726736 0.459824
vt 0.856369 0.460122
vt 0.726840 0.414378
vt 0.856473 0.414678
vt 0.726945 0.368931
vt 0.856578 0.369234
vt 0.727052 0.323484
vt 0.856685 0.323790
vt 0.727493 0.141697
vt 0.857239 0.096570
vt 0.857351 0.051124
vt 0.727718 0.050806
vn 0.951057 0.309016 0.000000
vn 0.809017 0.587785 -0.000000
vn 0.809017 0.587785 -0.000000
vn 0.951057 0.309016 0.000000
vn 0.587785 0.809017 -0.000000
vn 0.587785 0.809017 -0.000000
vn 0.309016 0.951057 -0.000000
vn 0.309016 0.951057 -0.000000
vn 0.000000 1.000000 -0.000000
vn 0.000000 1.000000 -0.000000
vn -0.309018 0.951056 -0.000000
vn -0.309018 0.951056 -0.000000
vn -0.587786 0.809017 -0.000000
vn -0.587786 0.809017 -0.000000
vn -0.809017 0.587786 -0.000000
vn -0.809017 0.587786 -0.000000
vn -0.951057 0.309017 -0.000000
vn -0.951057 0.309017 -0.000000
vn -1.000000 -0.000000 -0.000000
vn -1.000000 0.000000 -0.000000
vn -0.951056 -0.309018 -0.000000
vn -0.951056 -0.309018 -0.000000
vn -0.809016 -0.587786 0.000000
vn -0.809016 -0.587786 0.000000
vn -0.587786 -0.809016 0.000000
vn -0.587786 -0.809016 0.000000
vn -0.309018 -0.951056 0.000000
vn -0.309018 -0.951056 0.000000
vn 0.000000 -1.000000 0.000000
vn 0.000000 -1.000000 0.000000
vn 0.309018 -0.951056 0.000000
vn 0.309018 -0.951056 0.000000
vn 0.587786 -0.809016 0.000000
vn 0.587786 -0.809016 0.000000
vn 0.809017 -0.587785 0.000000
vn 0.809017 -0.587785 0.000000
vn 0.951056 -0.309017 0.000000
vn 0.951056 -0.309017 0.000000
vn 1.000000 -0.000001 0.000000
vn 1.000000 -0.000001 0.000000
vn 0.000000 -0.000000 -1.000000
vn 0.000000 -0.000000 -1.000000
vn -0.000000 0.000000 -1.000000
vn -0.000000 -0.000000 -1.000000
vn -0.000000 0.000000 -1.000000
vn 0.000000 -0.000000 -1.000000
vn -0.000000 -0.000000 -1.000000
vn 0.000000 0.000000 -1.000000
vn 0.000000 0.000000 -1.000000
vn 0.000000 -0.000000 -1.000000
vn 0.000000 -0.000000 -1.000000
vn 0.000000 -0.000000 -1.000000
vn -0.000000 -0.000000 -1.000000
vn 0.000000 -0.000000 -1.000000
vn -0.000000 0.000000 -1.000000
vn -0.000000 0.000000 -1.000000
vn 0.000000 0.000000 -1.000000
vn -0.000000 0.000000 -1.000000
vn 0.000000 -0.000000 -1.000000
vn 0.000000 -0.000000 -1.000000
vn 0.000000 -0.000000 -1.000000
vn 0.000000 0.000000 1.000000
vn 0.000000 0.000000 1.000000
vn -0.000000 -0.000000 1.000000
vn -0.000000 0.000000 1.000000
vn 0.000000 -0.000000 1.000000
vn 0.000000 -0.000000 1.000000
vn -0.000000 -0.000000 1.000000
vn 0.000000 0.000000 1.000000
vn 0.000000 0.000000 1.000000
vn 0.000000 0.000000 1.000000
vn 0.000000 0.000000 1.000000
vn -0.000000 0.000000 1.000000
vn 0.000000 -0.000000 1.000000
vn 0.000000 -0.000000 1.000000
vn -0.000000 -0.000000 1.000000
vn -0.000000 -0.000000 1.000000
vn 0.000000 -0.000000 1.000000
vn -0.000000 -0.000000 1.000000
vn -0.000000 -0.000000 1.000000
vn 0.000000 0.000000 1.000000
vn 0.000000 0.000000 1.000000
s 1
g pCylinder1
usemtl initialShadingGroup
f 1/43/1 2/44/2 22/45/3 21/46/4
f 2/44/2 3/47/5 23/48/6 22/45/3
f 3/47/5 4/81/7 24/49/8 23/48/6
f 4/81/7 5/50/9 25/82/10 24/49/8
f 5/50/9 6/84/11 26/83/12 25/82/10
f 6/51/11 7/53/13 27/54/14 26/52/12
f 7/53/13 8/55/15 28/56/16 27/54/14
f 8/55/15 9/57/17 29/58/18 28/56/16
f 9/57/17 10/59/19 30/60/20 29/58/18
f 10/59/19 11/61/21 31/62/22 30/60/20
f 11/61/21 12/63/23 32/64/24 31/62/22
f 12/63/23 13/65/25 33/66/26 32/64/24
f 13/65/25 14/67/27 34/68/28 33/66/26
f 14/67/27 15/69/29 35/70/30 34/68/28
f 15/69/29 16/71/31 36/72/32 35/70/30
f 16/71/31 17/73/33 37/74/34 36/72/32
f 17/73/33 18/75/35 38/76/36 37/74/34
f 18/75/35 19/77/37 39/78/38 38/76/36
f 19/77/37 20/79/39 40/80/40 39/78/38
f 20/79/39 1/43/1 21/46/4 40/80/40
s 2
f 2/2/41 1/1/42 41/41/43
f 3/5/44 2/2/41 41/41/43
f 4/7/45 3/5/44 41/41/43
f 5/9/46 4/7/45 41/41/43
f 6/11/47 5/9/46 41/41/43
f 7/13/48 6/11/47 41/41/43
f 8/15/49 7/13/48 41/41/43
f 9/17/50 8/15/49 41/41/43
f 10/19/51 9/17/50 41/41/43
f 11/21/52 10/19/51 41/41/43
f 12/23/53 11/21/52 41/41/43
f 13/25/54 12/23/53 41/41/43
f 14/27/55 13/25/54 41/41/43
f 15/29/56 14/27/55 41/41/43
f 16/31/57 15/29/56 41/41/43
f 17/33/58 16/31/57 41/41/43
f 18/35/59 17/33/58 41/41/43
f 19/37/60 18/35/59 41/41/43
f 20/39/61 19/37/60 41/41/43
f 1/1/42 20/39/61 41/41/43
s 3
f 21/4/62 22/3/63 42/42/64
f 22/3/63 23/6/65 42/42/64
f 23/6/65 24/8/66 42/42/64
f 24/8/66 25/10/67 42/42/64
f 25/10/67 26/12/68 42/42/64
f 26/12/68 27/14/69 42/42/64
f 27/14/69 28/16/70 42/42/64
f 28/16/70 29/18/71 42/42/64
f 29/18/71 30/20/72 42/42/64
f 30/20/72 31/22/73 42/42/64
f 31/22/73 32/24/74 42/42/64
f 32/24/74 33/26/75 42/42/64
f 33/26/75 34/28/76 42/42/64
f 34/28/76 35/30/77 42/42/64
f 35/30/77 36/32/78 42/42/64
f 36/32/78 37/34/79 42/42/64
f 37/34/79 38/36/80 42/42/64
f 38/36/80 39/38/81 42/42/64
f 39/38/81 40/40/82 42/42/64
f 40/40/82 21/4/62 42/42/64
